/* XPM */
static char * background_xpm[] = {
"32 32 18 1",
" 	c #000000",
".	c #040404",
"+	c #020202",
"@	c #080808",
"#	c #0D0D0D",
"$	c #010101",
"%	c #030303",
"&	c #141414",
"*	c #060606",
"=	c #111111",
"-	c #070707",
";	c #0B0B0B",
">	c #090909",
",	c #0A0A0A",
"'	c #0C0C0C",
")	c #0E0E0E",
"!	c #050505",
"~	c #0F0F0F",
"      .             + @   +#    ",
".    $ +  .%$% #  &       .     ",
"#     $          *           = +",
"             -    $    $;     $&",
"                    % $>;    $# ",
"         -   ,       %#.       *",
"   *     >+  '%   *$          .+",
"        %    +   #+            $",
"   $   +$++ '                   ",
"    %  % %   %           .-     ",
"        )     $   !     %      *",
"         !   .#% #     ..      $",
" - ~$   #!* . . !   ,   *     @ ",
" * ~=~                      .*  ",
"   -      .                 %   ",
"          $%     .         -    ",
"            %      .   $#  %+   ",
" $                 .        ,   ",
"            >                   ",
"                                ",
"     $          .        ;      ",
"                $     .    !$   ",
"     !          %    %*   >+    ",
"    + ~%   $    ' , ,+      ~   ",
"    @ ;$  .>#        *$         ",
">%    % $                       ",
"#                               ",
"                                ",
"            & %                 ",
"              %                 ",
"   *. .       +        $        ",
"  ;+  #         +         . $   "};
