/* XPM */
static char * collectable_xpm[] = {
"32 32 88 1",
" 	c #000000",
".	c #040404",
"+	c #020202",
"@	c #080808",
"#	c #0D0D0D",
"$	c #010101",
"%	c #030303",
"&	c #76A472",
"*	c #1C6014",
"=	c #060606",
"-	c #52724F",
";	c #13430D",
">	c #153E10",
",	c #3A6635",
"'	c #30572C",
")	c #193913",
"!	c #6FAC67",
"~	c #111111",
"{	c #070707",
"]	c #173C11",
"^	c #35752A",
"/	c #327828",
"(	c #34742A",
"_	c #36722B",
":	c #3D7932",
"<	c #2D8222",
"[	c #141414",
"}	c #394F37",
"|	c #284725",
"1	c #AAEBA4",
"2	c #307C25",
"3	c #36742A",
"4	c #36712C",
"5	c #37712C",
"6	c #3B7630",
"7	c #47883D",
"8	c #87C680",
"9	c #298A1E",
"0	c #3F7D34",
"a	c #38722E",
"b	c #35722B",
"c	c #327827",
"d	c #64B45B",
"e	c #090909",
"f	c #53924D",
"g	c #428138",
"h	c #3C7832",
"i	c #418038",
"j	c #46873D",
"k	c #569F4D",
"l	c #77D16F",
"m	c #4D9144",
"n	c #337629",
"o	c #3C7733",
"p	c #3B7631",
"q	c #3E7B35",
"r	c #4D9143",
"s	c #46873C",
"t	c #0E0E0E",
"u	c #1B3617",
"v	c #0F0F0F",
"w	c #050505",
"x	c #317D27",
"y	c #37732D",
"z	c #39702F",
"A	c #35762B",
"B	c #58A04F",
"C	c #396F2F",
"D	c #38702F",
"E	c #38712E",
"F	c #397030",
"G	c #3A7130",
"H	c #347629",
"I	c #407C37",
"J	c #0A0A0A",
"K	c #3B7331",
"L	c #49883F",
"M	c #2A5223",
"N	c #3D7633",
"O	c #5E8A59",
"P	c #215619",
"Q	c #25511D",
"R	c #24521C",
"S	c #36732B",
"T	c #4D7848",
"U	c #1F5A17",
"V	c #22531B",
"W	c #0B0B0B",
"      .             + @   +#    ",
".    $ +  .%$% #   &&&*&  .     ",
"#     $          =-;>,')!    ~ +",
"       &     {   -]^/(_^:<    $[",
"      }|1       -'/23456778  $# ",
"       } {  1  &,907(5abcd91   =",
"   =     e+-,1%-fdg2bghijk<9  .+",
"        %1  -+ ;*l2mnopqi<l9   $",
"   $   +&f1    -999mbrkskkl1    ",
"    %  % &   % -;9l9d7k32l91    ",
"        t     $ -,9lld<ll;-    =",
"        -u--&.#% -;lll9l,-     $",
" { v$ &&999ll11 w -,*l;;-     @ ",
" = v~&flx9yz9AB1   &---1    &.  ",
"   {&f99xzCCCDCl1          -,&  ",
"    &9lEEFCCCCGy1.   198   {-   ",
"   &*999zzCCzzzzB1 .1<H<9  %+   ",
" $ *999xyCCCCCzCI1 9<^<9//  J   ",
"   *999lKCCCzCFFB1 9<22<7/      ",
"   &9l99yDCCCCFGI1 9<</<<!      ",
"   &9999xECELCxAM&  9/292       ",
"    *99999ANEEAy&    912   w$   ",
"    &f9lll9lxx9f&    %=   e+    ",
"    +&99l999llf&  J J+   1  v   ",
"    @ &&*llll&&    O*P$ -,1     ",
"e%    % &&&&&     QP/R&  -      ",
"#                &922/P&        ",
"            1    *SH<22T        ",
"           -,1%  *P2^2UU        ",
"            - %   *V/k*         ",
"   =. .       +    *P> $        ",
"  W+  #         +         . $   "};
