/* XPM */
static char * exit_xpm[] = {
"32 32 33 1",
" 	c #000000",
".	c #040404",
"+	c #290229",
"@	c #020202",
"#	c #080808",
"$	c #0D0D0D",
"%	c #010101",
"&	c #3D003D",
"*	c #0F010F",
"=	c #0A000A",
"-	c #190019",
";	c #1C011C",
">	c #2A002A",
",	c #111111",
"'	c #130013",
")	c #141414",
"!	c #240124",
"~	c #1D001D",
"{	c #140014",
"]	c #0D000D",
"^	c #060006",
"/	c #060606",
"(	c #110011",
"_	c #040004",
":	c #090009",
"<	c #020002",
"[	c #010001",
"}	c #560000",
"|	c #0B000B",
"1	c #050505",
"2	c #090909",
"3	c #030303",
"4	c #0B0B0B",
"      .      +++++++@ #   @$    ",
".    % @ &++**=====-;++   .     ",
"$     % ++**-;+++&>=*->++    , @",
"       ;==->;;';;;;&>=*-&+    %)",
"     >+*!&;;~{~]''';;+>=-&+  %$ ",
"    &+*->]{~;;;+++';;>;+^-&+   /",
"   &+=-~]~>;';>>>>>';;&>&=->+ .@",
"   &=(~;>>'~~^_^==>>>;;&>>*-+  %",
"  &+^!;>{'{_^~~{{~=^>>;;&>=- +  ",
" & ^->'~'>=>::]:::]{_>;;+&~*-+  ",
" &;_-;{;;^'^^^^_<^^:'_~;;&>=-++/",
" >;^(;~'^;]_:^]^_<<_]'^'';>=-++%",
">+^(;~';='<<[   <<[^[][~;'&~=!++",
"&+^('~;=;_:<^<<   ^<^::^';'>=!++",
"&;*('~'=:^_[ [     <<^^^;';~=!++",
"&;*('{'^::<<_} <<^} _[^^'';~=!++",
"&;*('~'<:_^<[< ^= [<[[_=:;;>^!++",
"&;=('>'_:__ <[ <<^ < [_=];;>_!++",
">;=('&'~__^[_ _   _  ^[~'';>_-++",
" ;>=|>;;[<^:_ _^:^<  ]<{+;;=|;&+",
" ;;=(~&;{ ^_^:[^_^ :[[~~+'>=|;&+",
" &;=('>;'{[<:<_  []< '~;+'>=(>+ ",
"  ; =-{>;]]  <<_<_< ^{>++~=-~>+ ",
"   ;=(+~]~'~] <<  ^:^~;;'>^-~+  ",
"   ;1=(>>'&;&~]_<[:{>&++>=->~+  ",
"23  '>=->>]{']]~>>&>>;;;*|>>+   ",
"$   ;;~^(>>;''&+;;;;;;~_|> >+   ",
"     ;;>==-&&&''';+++^^(>&>+    ",
"      +;>>==->>>>]'^^->&>>+     ",
"       ++; >======^(~~>>&+      ",
"   /. . ++++;;;;;>&&&&&++       ",
"  4@  $   +++&&&&&&&+++   . %   "};
