/* XPM */
static char * player_xpm[] = {
"32 32 29 1",
" 	c #000000",
".	c #040404",
"+	c #020202",
"@	c #080808",
"#	c #0D0D0D",
"$	c #010101",
"%	c #030303",
"&	c #141414",
"*	c #060606",
"=	c #111111",
"-	c #063F42",
";	c #0B0B0B",
">	c #2A2E2E",
",	c #1D2020",
"'	c #141616",
")	c #021E20",
"!	c #042C2E",
"~	c #BF1F64",
"{	c #851545",
"]	c #5C0E30",
"^	c #400921",
"/	c #011416",
"(	c #070707",
"_	c #1B7E87",
":	c #0D0F0F",
"<	c #A3CED1",
"[	c #88C4C9",
"}	c #0F0F0F",
"|	c #090909",
"      .             + @   +#    ",
".    $ +  .%$% #  &       .     ",
"#     $          *           = +",
"             ------    $;     $&",
"            -->,',--% $      $# ",
"       )!- !->''''>-!%-!)      *",
"   *   !~-+ !-,'',-!  -~!     .+",
"     )!-!!!!!!!!!!!!!!!!-!)    $",
"   $ !~!-{{-~]]~{^]{-~~-!~!     ",
"    %--!{!~-{{]]^]]]-~-~!--     ",
"       !{]!!))///)))!-~~!      *",
"     ! !--)-~~~~~~~~-!--! !    $",
" (  --!!~{)~-~~~~~~-~){]!!--  @ ",
" * -->-!]{)~~!----!~~)]]!->--   ",
"   -,',!]]!~~-____-~~)]{!,',-   ",
"   -':'!]]!~~-__<_-~~)^]!'',-   ",
"   -'',!]{)~~-__[_-~~)]{!'''-   ",
" $ -,:,!]])~~-____-~~)]]!,',-   ",
"   -->-!{])~~!----!~~){]!->--   ",
"    --!!{{)~-~~~~~~-~)~{!!--    ",
"     ! !--)-~~~~~~~~-)--! !     ",
"       !]~!)))))/))))!{]!   $   ",
"     --!{-{-{]]^]]]{-{-{!--+    ",
"    +!~!-{]-{]{{{]]{-~{-!~! }   ",
"    @)!-!!!!!!!!!!!!!!!!-!)     ",
"|%    %!~-  !-,::>-!  -~!       ",
"#      )!- !-,:::'>-! -!)       ",
"            --'','--            ",
"             ------             ",
"              %                 ",
"   *. .       +        $        ",
"  ;+  #         +         . $   "};
