/* XPM */
static char * wall_xpm[] = {
"32 32 29 1",
" 	c #000000",
".	c #040404",
"+	c #241306",
"@	c #150B03",
"#	c #080808",
"$	c #020202",
"%	c #0D0D0D",
"&	c #0C0601",
"*	c #111111",
"=	c #141414",
"-	c #070300",
";	c #070707",
">	c #060606",
",	c #090909",
"'	c #030303",
")	c #010101",
"!	c #0C0C0C",
"~	c #150F03",
"{	c #0F0F0F",
"]	c #241A06",
"^	c #0A0A0A",
"/	c #1F190E",
"(	c #111003",
"_	c #120F08",
":	c #0A0904",
"<	c #091C1B",
"[	c #0B0B0B",
"}	c #051010",
"|	c #050505",
"      .     +++@@@+++ #   $%    ",
". @+@+++  .+@@&&@&&&&@&@+ .     ",
"% &&&@+++ +@@@@+@@@@@&&&@   +* $",
"     @++  +@@@@@@@@+@@&@@@ @@++=",
"  &&@@+   +@@@@@@@@@@@+--@  @@% ",
" +--&@@++; @&@+&&@@&&&&&-@     >",
"  --&@&@+,$++@&@@&&@&&&&@   @+.$",
" +--@   '    +@+ %$++&@@   &&@+)",
"  &&   @@++ !               &&+ ",
"    ' +&@+++ '      + +@&@.  @@ ",
"      @&@@++  )   @&&&-&~@@+   >",
"     @&&@@++ .%' &--&-~@@@@@+  )",
" ; { +@&&&@@. .+&-&&@~]+@@@]@+# ",
" > {^,&@&&@   @--+@&+@@@@@@@@+  ",
"   ;   &&+.  @-&@@@@@@@@@@@@]+  ",
"  +@+     )' &-&+@+++++@@@@@@+  ",
" @&&++      '&--&++@@+@@@@@@&   ",
" )+--@        +-&&--&~+@@@@-^   ",
"       @@/+ ,  &--& @---@&(     ",
"      +_@&@+        +&@@@   ++  ",
"     @_:&<@@_+  +++     @[@@+++ ",
"    +@&}&@@@@++ )++   .    |)++ ",
"    @&@@@@@@@/++'   &-@&&+@$    ",
"    +&@@@@@@@@@+! ^ -&@&++@+{   ",
"    @&&@@@@@@@@+   &--&@@@@@+   ",
",'  +&_@@@@++@+@   &-&&@+@@@+   ",
"%    }&&@@@_@@@    @--&@+@+@@   ",
"  @+  @@@@@@@@+     ---@@++@@   ",
"  &++ +&&@@@@+' +++ @&---&@&    ",
" @&@+  &&&&@+ '@&@@   -----     ",
"  @@. .@@@@   $@-&@+   &--&     ",
"  [$  %         $         . )   "};
