/* XPM */
static char *_f848ff0f3d54bcaaf14ee92401137ddIF0JmabgJrvtqZBA[] = {
/* columns rows colors chars-per-pixel */
"32 32 20 1 ",
"  c black",
". c #040404",
"X c #0B0900",
"o c #090909",
"O c gray5",
"+ c #110E01",
"@ c #191502",
"# c #111111",
"$ c gray8",
"% c #251F03",
"& c #271806",
"* c #352D05",
"= c #382309",
"- c #51330D",
"; c #4C4108",
": c #6D5E0C",
"> c #744A14",
", c #A66B1E",
"< c #9C8712",
"1 c #E0C21B",
/* pixels */
"              >>>>- >>.    O    ",
".        <;:<>--==---->,  .     ",
"O      :; *%*>>-=>,-- ,>     # .",
"     :**%%@;>--->>>,>-,>O      $",
"     :**:>===-=>>>>>>--.O     O ",
"     %%*,===--->->>>>-->       o",
"    %*X%==--->,,>--->>-,,     . ",
"   ;;;@;----,,,>>>>-><: >       ",
"    @%*>---,>>>,>,,>>,--        ",
"    %+;-=>>>,,,,>,,,,,>< .o     ",
"   **+%%;>>->>>>>>>,1>1:1      .",
"    <;%===->,>,,>>>>><<<.       ",
" o # %-==,>,,,>>>>>>o,1 ,     o ",
" . Oo ->>>>,>>,>>>>, , , ,1<,.  ",
"  ::;==--------->>>,>>,,,>,>>>  ",
"  < --=======---;--->,,,->1---,1",
" :%->>>--->>,>>>,,,,>,,>;-->,-,,",
":**>=-=-,->--,,,,,,,>,,,--->>><1",
": ,%===-->----->,,,,>>--,>>,,:;<",
": *=---->>>>->->>>>,,,>,,>>,><-,",
" :-==>->>,>=->>>>,,,,,,>,>>,-,-,",
"  -=>,----==------->>>,,->>,->,,",
" ;,=*;>>-->->,>--->,,,>>-,>->>>1",
" *%>->>--@=>-->>>-,,>>,>>,>->,>,",
"  %,=--*=-,>>-;;->>>,,,>>,--,<, ",
"o *,>--@-=-*-<,>-----,>>,,->>,  ",
"O  %@+>>-*->-%--=-----=->>->,   ",
"    ;%@>,@@@>,>=>---==-->-,,1   ",
"     <  ;; *;;-=------>>> ,,<   ",
"             :>=&+=>==%*-><<    ",
"   .. .       .,, >->,,>>,      ",
"  O.  O         >>,,>-:<1 .     "
};
